<?xml version="1.0" encoding="utf-8"?>
<!-- Generator: Adobe Illustrator 24.0.1, SVG Export Plug-In . SVG Version: 6.00 Build 0)  -->
<svg version="1.1" id="Layer_1" xmlns="http://www.w3.org/2000/svg" xmlns:xlink="http://www.w3.org/1999/xlink" x="0px" y="0px"
	 viewBox="0 0 89.8 89.8" style="enable-background:new 0 0 89.8 89.8;" xml:space="preserve">
<style type="text/css">
	.st0{fill:none;stroke:#55ACEE;stroke-width:3;stroke-miterlimit:10;}
	.st1{opacity:0.54;fill:none;stroke:#969696;stroke-width:2;stroke-miterlimit:10;}
</style>
<path class="st0" d="M58.3,23.9H31.5c-4.3,0-7.7,3.5-7.7,7.7v26.8c0,4.3,3.5,7.7,7.7,7.7h26.8c4.3,0,7.7-3.5,7.7-7.7V31.6
	C66,27.4,62.5,23.9,58.3,23.9z M44.9,53.6c-4.8,0-8.8-3.9-8.8-8.8c0-4.8,3.9-8.8,8.8-8.8c4.8,0,8.8,3.9,8.8,8.8
	C53.6,49.7,49.7,53.6,44.9,53.6z M55.9,36.1c-1.8,0-3.3-1.5-3.3-3.3c0-1.8,1.5-3.3,3.3-3.3c1.8,0,3.3,1.5,3.3,3.3
	C59.2,34.7,57.8,36.1,55.9,36.1z"/>
<circle class="st1" cx="44.9" cy="43.3" r="39.3"/>
</svg>
