<?xml version="1.0" encoding="utf-8"?>
<!-- Generator: Adobe Illustrator 24.0.1, SVG Export Plug-In . SVG Version: 6.00 Build 0)  -->
<svg version="1.1" id="Capa_1" xmlns="http://www.w3.org/2000/svg" xmlns:xlink="http://www.w3.org/1999/xlink" x="0px" y="0px"
	 viewBox="0 0 112.2 112.2" style="enable-background:new 0 0 112.2 112.2;" xml:space="preserve">
<style type="text/css">
	.st0{opacity:0.54;fill:none;stroke:#969696;stroke-miterlimit:10;}
	.st1{fill:#55ACEE;}
</style>
<g>
	<ellipse class="st0" cx="56.1" cy="56.1" rx="50.9" ry="52.3"/>
	<g>
		<path class="st1" d="M87.3,41.4c-2.2,1-4.5,1.7-7,2c2.5-1.5,4.4-4,5.3-6.9c-2.3,1.4-5,2.5-7.7,3c-2.2-2.4-5.4-3.9-8.9-3.9
			c-6.7,0-12.2,5.6-12.2,12.5c0,1,0.1,1.9,0.3,2.8c-10.1-0.5-19.1-5.5-25.1-13.1c-1,1.8-1.6,4-1.6,6.3c0,4.3,2.1,8.2,5.4,10.4
			c-2-0.1-3.9-0.6-5.5-1.6c0,0.1,0,0.1,0,0.2c0,6.1,4.2,11.1,9.8,12.3c-1,0.3-2.1,0.4-3.2,0.4c-0.8,0-1.5-0.1-2.3-0.2
			c1.5,5,6,8.6,11.4,8.7c-4.2,3.4-9.4,5.4-15.1,5.4c-1,0-1.9-0.1-2.9-0.2C33.4,83,39.8,85,46.6,85C69,85,81.2,66,81.2,49.5
			c0-0.5,0-1.1,0-1.6C83.6,46.1,85.6,43.9,87.3,41.4L87.3,41.4z"/>
	</g>
</g>
</svg>
