<?xml version="1.0" encoding="utf-8"?>
<!-- Generator: Adobe Illustrator 24.0.1, SVG Export Plug-In . SVG Version: 6.00 Build 0)  -->
<svg version="1.1" id="Layer_1" xmlns="http://www.w3.org/2000/svg" xmlns:xlink="http://www.w3.org/1999/xlink" x="0px" y="0px"
	 viewBox="0 0 480 480" style="enable-background:new 0 0 480 480;" xml:space="preserve">
<style type="text/css">
	.st0{fill:#FFFFFF;}
</style>
<path class="st0" d="M240,0C107.5,0,0,107.5,0,240s107.5,240,240,240s240-107.5,240-240C479.9,107.5,372.5,0.1,240,0z M240,464
	C116.3,464,16,363.7,16,240S116.3,16,240,16s224,100.3,224,224C463.9,363.7,363.7,463.9,240,464z"/>
<g>
	<path class="st0" d="M327.7,119.5H152.3c-18.6,0-33.7,15-33.7,33.5V327c0,18.5,15.1,33.5,33.7,33.5h175.4c18.6,0,33.7-15,33.7-33.5
		V153C361.4,134.5,346.3,119.5,327.7,119.5z M347.9,327c0,11.1-9,20.1-20.2,20.1H152.3c-11.2,0-20.2-9-20.2-20.1V153
		c0-11.1,9-20.1,20.2-20.1h175.4c11.2,0,20.2,9,20.2,20.1V327z"/>
	<path class="st0" d="M240,173c-37.3,0-67.5,30-67.5,67s30.2,67,67.5,67s67.5-30,67.5-67S277.3,173,240,173z M240,293.6
		c-29.8,0-54-24-54-53.6s24.2-53.6,54-53.6s54,24,54,53.6S269.8,293.6,240,293.6z"/>
	<path class="st0" d="M314.2,146.3c-11.2,0-20.2,9-20.2,20.1s9,20.1,20.2,20.1s20.2-9,20.2-20.1S325.4,146.3,314.2,146.3z
		 M314.2,173c-3.7,0-6.7-3-6.7-6.7c0-3.7,3-6.7,6.7-6.7s6.7,3,6.7,6.7C321,170,317.9,173,314.2,173z"/>
</g>
</svg>
