<?xml version="1.0" encoding="utf-8"?>
<!-- Generator: Adobe Illustrator 24.0.1, SVG Export Plug-In . SVG Version: 6.00 Build 0)  -->
<svg version="1.1" id="Layer_1" xmlns="http://www.w3.org/2000/svg" xmlns:xlink="http://www.w3.org/1999/xlink" x="0px" y="0px"
	 viewBox="0 0 512 512" style="enable-background:new 0 0 512 512;" xml:space="preserve">
<style type="text/css">
	.st0{fill:#FFFFFF;}
</style>
<g>
	<g>
		<path class="st0" d="M437,75C388.7,26.6,324.4,0,256,0S123.3,26.6,75,75C26.6,123.3,0,187.6,0,256s26.6,132.7,75,181
			c48.4,48.4,112.6,75,181,75s132.7-26.6,181-75s75-112.6,75-181S485.4,123.3,437,75z M256,495.8C123.8,495.8,16.2,388.2,16.2,256
			S123.8,16.2,256,16.2S495.8,123.8,495.8,256S388.2,495.8,256,495.8z"/>
	</g>
</g>
<g>
	<g>
		<path class="st0" d="M412.9,162.1c-2.2-2-5.5-2.4-8.1-1c-3.8,1.8-7.7,3.4-11.7,4.8c3.9-5.6,7.1-11.7,9.3-18.3
			c0.9-2.7,0.5-5.9-1.5-7.9c-2.4-2.6-6.1-3.2-9.1-1.5c-10.8,6.3-22.4,10.7-34.5,12.8c-13.7-12.9-31.2-20-49.7-20
			c-38.5,0-70.2,30.8-73.4,70c-7.9-1.3-23.5-5.9-27.2-7.2c-27-9.5-51.2-26.3-70.2-48.4c-1.1-1.3-2.6-2.3-4.3-2.6
			c-3.4-0.7-6.6,1.1-7.9,4.1c-4.7,9.8-7.1,20.3-7.1,31.4c0,15.2,4.6,29.6,12.8,41.3c-2.6-0.5-5.3,0.5-7.1,2.7c-1,1.3-1.5,3-1.6,4.7
			c0,0.8-0.1,1.5-0.1,2.4c0,20.6,9.1,39.3,23.8,51.6c-1,0.8-1.9,1.7-2.5,2.9c-0.9,1.8-1,3.9-0.4,5.9c6.5,21.3,22.4,37.5,42.2,44.2
			c-17.9,11.3-38.6,17.4-59.9,17.4c-1.9,0-3.8-0.1-5.7-0.2c-3.6-0.2-7,2.5-7.7,6.3c-0.5,3.1,1.1,6.3,3.7,7.9
			c27.1,16.5,58,25.3,89.7,25.3c37.7,0,73.6-12.2,103.5-34.7c3.7-2.7,4.1-8.3,0.9-11.7l0,0c-2.6-2.7-6.7-3-9.7-0.8
			c-26.7,20-59.4,31.8-94.8,31.8c-19.8,0-39.4-3.8-57.7-11c22.1-4.1,43.1-14,60.5-29c2.1-1.8,3.2-4.7,2.6-7.5c-0.6-3.6-3.6-6-7-6.1
			c-17.9-0.6-34-10.8-42.5-26.5c4.1-0.2,8.2-0.8,12.2-1.7c3.1-0.8,5.6-3.3,6-6.5c0.5-3.9-1.9-7.5-5.6-8.4
			c-19.2-4.9-33.3-21.2-36.5-40.9c5.6,1.4,11.5,2,17.3,1.8c3.6-0.1,6.7-2.9,7.1-6.8c0.4-3-1.2-5.9-3.7-7.6
			c-15.9-10.1-25.5-27.7-25.5-47c0-4.7,0.5-9.3,1.7-13.9C152.9,184,176.3,199,202,208c0.3,0.1,25.6,8.3,35.2,8.3
			c0.6,0,3.6,0.2,3.6,0.2c3.1,0.1,6.1-1.8,7.3-5c0.4-0.9,0.5-1.9,0.5-2.9c0-0.5,0-0.8,0-1.3c0-33.7,26.5-61.2,59-61.2
			c15.9,0,30.9,6.5,42.1,18.2c1.6,1.7,3.9,2.5,6.2,2.2c7.5-1,14.9-2.8,21.9-5.3c-3.7,4.2-8.2,7.9-13.2,10.9c-3.4,2-4.8,6.2-3.2,9.8
			l0.1,0.3c1.3,3,4.3,4.7,7.4,4.4c6.1-0.6,12.1-1.6,18-3.1c-5.2,5.6-10.9,10.7-17.1,15.2c-2,1.5-3.2,3.9-3.1,6.5v0.5
			c0,0.6,0,1,0,1.6v0.7c-0.2,42.8-15.9,81.9-41.6,111.4c-2.6,3-2.5,7.6,0.3,10.6c3,3.1,7.9,3,10.8-0.3
			c28.9-33.2,44.8-75.7,45.2-120.8c13.1-10.1,24.2-22.6,33-36.9C416.2,168.9,415.7,164.7,412.9,162.1z"/>
	</g>
</g>
</svg>
